# xmcd
#
# Track frame offsets:
#	150
#	21505
#	38700
#	53380
#	71920
#	90400
#	105425
#	121495
#	140135
#	159445
#
# Disc length: 2342 seconds
#
# Revision: 0
# Processed by: cddbd v1.4PL0 Copyright (c) Steve Scherf et al.
# Submitted via: dBpowerAMP V4.0
#
DISCID=8109240a
DTITLE=Sibel Tüzün - Nefes Keser Asklar
DYEAR=1900
DGENRE=
TTITLE0=Nefes KEser Asklar
TTITLE1=Cesur Asklara
TTITLE2=Kacin Kurrasi
TTITLE3=Gözümün Bebegi
TTITLE4=Gitmem
TTITLE5=Anca Beraber
TTITLE6=Eski Baharlar
TTITLE7=Deniz Yildizi
TTITLE8=Gözle Sevistik
TTITLE9=Tiryaki
EXTD=
EXTT0=
EXTT1=
EXTT2=
EXTT3=
EXTT4=
EXTT5=
EXTT6=
EXTT7=
EXTT8=
EXTT9=
PLAYORDER=
